<svg width="390" height="364" viewBox="0 0 390 364" fill="none" xmlns="http://www.w3.org/2000/svg">
<path d="M276.6 101.848C276.02 102.562 275.4 103.243 274.744 103.888C274.673 103.972 274.628 104.075 274.615 104.183C274.601 104.292 274.619 104.403 274.666 104.502C274.713 104.601 274.788 104.684 274.881 104.742C274.975 104.799 275.083 104.829 275.193 104.826C277.558 103.376 279.429 101.242 280.558 98.7064C280.843 97.8496 279.517 97.0744 279.089 98.0128C277.967 100.481 273.724 100.624 272.602 100.236C272.448 100.18 272.277 100.186 272.128 100.255C271.979 100.324 271.863 100.449 271.806 100.604C271.749 100.758 271.756 100.928 271.825 101.077C271.894 101.227 272.019 101.342 272.173 101.399C273.594 101.891 275.11 102.045 276.6 101.848ZM269.195 91.444C268.235 92.2986 267.219 93.0891 266.155 93.8104C265.956 93.9399 265.792 94.1187 265.682 94.3295C265.571 94.5403 265.516 94.776 265.523 95.014C265.523 95.7484 268.093 97.666 268.114 97.6864C268.222 97.7667 268.355 97.8062 268.489 97.7981C268.623 97.7899 268.75 97.7347 268.848 97.642C268.945 97.5494 269.007 97.4253 269.022 97.2916C269.037 97.1579 269.004 97.0232 268.93 96.9112C268.787 96.646 267.971 95.6464 267.461 94.9732C269.766 92.668 270.807 91.9132 270.031 91.342C269.901 91.2613 269.747 91.2275 269.595 91.246C269.443 91.2646 269.302 91.3344 269.195 91.444ZM267.42 90.1996C268.236 89.8324 268.032 88.894 269.011 86.446C269.05 86.3576 269.071 86.2624 269.073 86.1659C269.075 86.0694 269.058 85.9734 269.023 85.8834C268.988 85.7934 268.936 85.7112 268.869 85.6415C268.802 85.5718 268.722 85.5159 268.634 85.477C268.546 85.4382 268.45 85.4171 268.354 85.4151C268.257 85.413 268.161 85.43 268.071 85.4651C267.981 85.5001 267.899 85.5525 267.829 85.6193C267.76 85.6861 267.704 85.766 267.665 85.8544C266.523 88.2412 265.625 88.7308 265.992 89.5672C266.037 89.7082 266.11 89.838 266.209 89.9482C266.307 90.0584 266.428 90.1463 266.563 90.2061C266.698 90.2659 266.845 90.2963 266.992 90.2952C267.14 90.2941 267.286 90.2615 267.42 90.1996ZM275.825 92.7904C276.641 92.4232 276.457 91.4644 277.416 89.0368C277.495 88.8583 277.499 88.6559 277.428 88.4742C277.357 88.2925 277.217 88.1463 277.039 88.0678C276.86 87.9894 276.658 87.9851 276.476 88.0559C276.294 88.1266 276.148 88.2667 276.07 88.4452C275.131 90.4852 274.03 91.342 274.377 92.158C274.423 92.2997 274.499 92.4299 274.6 92.5401C274.7 92.6503 274.823 92.7382 274.959 92.7978C275.096 92.8575 275.244 92.8877 275.393 92.8864C275.542 92.8852 275.689 92.8524 275.825 92.7904ZM109.504 58.396C108.525 51.1132 108.708 50.95 108.076 50.95C72.4166 50.95 74.3138 50.7052 74.3138 51.46V58.2124C74.3138 58.498 74.5382 58.8448 74.8238 58.8448C110.911 58.9672 109.626 59.1712 109.504 58.396ZM120.907 50.95C111.156 50.95 111.727 50.95 111.503 51.1132C111.279 51.2764 111.319 50.9704 112.258 58.5184C112.258 59.1508 112.36 58.9672 120.907 58.9672C121.043 58.9672 121.172 58.9135 121.268 58.8179C121.364 58.7222 121.417 58.5925 121.417 58.4572V51.4396C121.412 51.308 121.356 51.1834 121.261 51.0921C121.166 51.0009 121.039 50.9499 120.907 50.95ZM297.571 51.0724L284.638 51.97C284.574 51.97 284.512 51.9828 284.453 52.0076C284.395 52.0324 284.342 52.0688 284.299 52.1146C284.255 52.1604 284.221 52.2145 284.198 52.2738C284.176 52.3331 284.166 52.3963 284.169 52.4596V60.1708C284.169 60.3061 284.222 60.4358 284.318 60.5315C284.414 60.6271 284.543 60.6808 284.679 60.6808H297.592C297.727 60.6808 297.857 60.6271 297.952 60.5315C298.048 60.4358 298.102 60.3061 298.102 60.1708C298.102 51.4396 298.326 51.052 297.571 51.0724ZM81.0254 87.3844V81.3664C81.0254 81.2312 80.9716 81.1015 80.876 81.0058C80.7803 80.9102 80.6506 80.8564 80.5154 80.8564H75.5174C75.3821 80.8564 75.2524 80.9102 75.1567 81.0058C75.0611 81.1015 75.0074 81.2312 75.0074 81.3664C75.0074 88.1188 75.0073 87.7924 75.1705 87.9964C75.3337 88.2004 75.1705 88.1596 80.5358 87.8944C80.6658 87.8845 80.7876 87.827 80.8779 87.7329C80.9682 87.6388 81.0207 87.5148 81.0254 87.3844ZM110.157 79.4896C82.2494 80.938 83.2898 80.632 83.2898 81.3664C83.2898 87.6088 83.2898 87.3028 83.4326 87.4864C83.5754 87.67 82.0045 87.6496 110.177 87.2416C110.312 87.2416 110.442 87.1879 110.538 87.0923C110.633 86.9966 110.687 86.8669 110.687 86.7316V79.9996C110.69 79.9301 110.678 79.8606 110.653 79.7959C110.627 79.7313 110.587 79.6728 110.537 79.6246C110.487 79.5763 110.427 79.5393 110.361 79.516C110.296 79.4928 110.226 79.4838 110.157 79.4896ZM151.528 79.4692V85.3852C151.528 85.5205 151.581 85.6502 151.677 85.7459C151.773 85.8415 151.903 85.8952 152.038 85.8952C159.055 85.8952 158.709 85.8952 158.933 85.7116C159.157 85.528 159.117 85.7116 158.199 79.3876C158.199 78.7756 157.893 78.9592 152.079 78.9592C152.008 78.9536 151.938 78.9626 151.871 78.9857C151.804 79.0088 151.743 79.0455 151.691 79.0934C151.639 79.1413 151.598 79.1995 151.57 79.2642C151.542 79.3289 151.528 79.3987 151.528 79.4692ZM181.577 85.7932C181.801 85.528 181.74 85.7932 181.026 79.7956C181.026 79.1632 182.046 79.3876 162.034 79.0204C161.961 79.0199 161.89 79.0348 161.823 79.0642C161.757 79.0936 161.698 79.1367 161.65 79.1908C161.601 79.2448 161.565 79.3085 161.544 79.3776C161.522 79.4468 161.515 79.5197 161.524 79.5916C162.299 85.9564 162.156 85.9564 162.768 85.9564C182.76 85.9564 181.353 86.1196 181.577 85.7932ZM185.29 85.8952C193.98 86.14 193.45 86.1808 193.674 85.8952C193.899 85.6096 193.837 86.038 193.837 79.408C193.832 79.2709 193.774 79.1412 193.675 79.0461C193.576 78.951 193.444 78.8979 193.307 78.898C183.841 79.2652 184.392 79.1632 184.188 79.408C183.984 79.6528 184.045 79.408 184.8 85.3852C184.809 85.5142 184.863 85.6359 184.952 85.7292C185.042 85.8224 185.161 85.8812 185.29 85.8952ZM83.1877 111.966C84.3913 104.418 84.3913 104.826 84.1669 104.582C83.9425 104.337 84.2894 104.378 77.1494 104.765C77.0213 104.776 76.9018 104.834 76.8148 104.928C76.7278 105.023 76.6797 105.147 76.6802 105.275V112.334C76.6802 112.469 76.7339 112.599 76.8295 112.694C76.9252 112.79 77.0549 112.844 77.1902 112.844L82.8002 112.395C82.9018 112.374 82.9942 112.321 83.0639 112.244C83.1336 112.167 83.1769 112.07 83.1877 111.966ZM92.735 111.518C92.735 104.112 92.735 104.52 92.5718 104.296C92.4086 104.072 92.6942 104.153 87.0434 104.398C86.4518 104.398 86.5742 104.398 85.7786 111.456C85.7699 111.528 85.7766 111.601 85.7983 111.67C85.82 111.74 85.8562 111.803 85.9044 111.857C85.9527 111.911 86.0119 111.955 86.0781 111.984C86.1444 112.013 86.2161 112.028 86.2886 112.028H92.225C92.3602 112.028 92.4899 111.974 92.5856 111.878C92.6812 111.783 92.735 111.653 92.735 111.518ZM102.935 104.031C102.935 111.416 102.935 111.008 103.078 111.232C103.221 111.456 100.201 111.558 153.16 108.641C153.231 108.636 153.3 108.617 153.363 108.584C153.426 108.551 153.481 108.505 153.525 108.449C153.569 108.394 153.602 108.329 153.619 108.26C153.637 108.192 153.64 108.12 153.629 108.05L152.323 99.7264C152.303 99.5984 152.235 99.4829 152.133 99.4033C152.03 99.3237 151.902 99.2861 151.773 99.298C100.507 103.827 102.935 103.296 102.935 104.031ZM170.663 107.336C170.663 97.6456 170.663 98.2168 170.5 97.9924C170.337 97.768 171.214 97.7272 155.71 99.2572C155.571 99.2775 155.445 99.35 155.358 99.46C155.271 99.5699 155.229 99.709 155.241 99.8488C156.546 108.396 156.383 108.437 156.995 108.437L170.173 107.846C170.305 107.84 170.43 107.784 170.521 107.689C170.612 107.594 170.663 107.467 170.663 107.336ZM181.903 98.3596V107.091C181.903 107.226 181.957 107.356 182.053 107.451C182.148 107.547 182.278 107.601 182.413 107.601H195.408C195.543 107.601 195.673 107.547 195.769 107.451C195.864 107.356 195.918 107.226 195.918 107.091C195.918 97.0948 195.918 97.768 195.755 97.5436C195.592 97.3192 196.551 97.3396 182.393 97.8496C182.261 97.8549 182.137 97.911 182.045 98.006C181.954 98.1011 181.903 98.2278 181.903 98.3596ZM247.143 73.0432C232.863 73.9204 233.332 73.6348 233.332 74.3284V82.2232C233.332 82.3585 233.385 82.4882 233.481 82.5839C233.577 82.6795 233.707 82.7332 233.842 82.7332H247.183C247.319 82.7332 247.448 82.6795 247.544 82.5839C247.64 82.4882 247.693 82.3585 247.693 82.2232C247.693 73.5532 247.918 73.0024 247.143 73.0432ZM88.7162 139.404C89.3486 129.327 89.369 130.143 89.165 129.918C88.961 129.694 89.777 129.755 78.1082 129.755C77.9729 129.755 77.8432 129.809 77.7475 129.905C77.6519 130 77.5982 130.13 77.5982 130.265V139.384C77.5982 139.519 77.6519 139.649 77.7475 139.745C77.8432 139.84 77.9729 139.894 78.1082 139.894H88.2062C88.3365 139.889 88.4605 139.837 88.5546 139.747C88.6487 139.656 88.7062 139.534 88.7162 139.404ZM115.542 129.184C115.41 129.189 115.286 129.245 115.195 129.34C115.103 129.436 115.052 129.562 115.053 129.694V137.426C115.053 137.561 115.106 137.691 115.202 137.786C115.298 137.882 115.427 137.936 115.563 137.936H123.6C123.735 137.936 123.865 137.882 123.961 137.786C124.056 137.691 124.11 137.561 124.11 137.426V129.388C124.105 129.251 124.047 129.121 123.948 129.026C123.849 128.931 123.717 128.878 123.58 128.878L115.542 129.184ZM162.687 127.613C125.212 128.592 127.129 128.49 127.129 129.225C127.129 137.895 127.129 137.385 127.272 137.609C127.415 137.834 125.232 137.854 162.727 136.956C162.857 136.946 162.979 136.889 163.07 136.795C163.16 136.701 163.212 136.577 163.217 136.446V128.123C163.22 128.054 163.208 127.984 163.183 127.92C163.157 127.855 163.117 127.796 163.067 127.748C163.017 127.7 162.957 127.663 162.891 127.64C162.826 127.616 162.756 127.607 162.687 127.613ZM195.245 127.43C194.388 135.834 194.368 135.324 194.592 135.59C194.817 135.855 193.511 135.753 210.79 135.753C210.875 135.761 210.96 135.747 211.039 135.714C211.117 135.68 211.186 135.628 211.238 135.561C211.291 135.494 211.326 135.415 211.341 135.331C211.355 135.247 211.348 135.16 211.32 135.08C209.525 126.614 209.709 126.573 209.097 126.593C194.817 126.92 195.306 126.797 195.245 127.43ZM215.176 135.651H221.051C221.179 135.651 221.303 135.603 221.398 135.516C221.492 135.429 221.551 135.31 221.561 135.182C222.418 125.818 222.438 126.41 222.193 126.165C221.949 125.92 222.561 125.981 213.034 126.552C212.96 126.559 212.889 126.582 212.825 126.618C212.761 126.655 212.706 126.705 212.664 126.765C212.621 126.825 212.592 126.894 212.578 126.966C212.565 127.039 212.567 127.113 212.585 127.185C214.829 135.896 214.625 135.651 215.176 135.651ZM136.575 47.482C128.965 53.1736 127.905 53.7244 127.864 54.4384C127.864 55.5196 131.944 59.1712 132.087 59.212C132.2 59.2741 132.33 59.2973 132.458 59.2781C132.586 59.259 132.704 59.1985 132.794 59.106C132.884 59.0135 132.942 58.8941 132.958 58.7659C132.974 58.6377 132.947 58.5078 132.882 58.396C132.25 57.5596 130.699 55.4584 130.21 54.7648C131.209 53.7856 135.453 50.1952 137.452 48.6448C138.186 48.0736 137.309 46.9312 136.575 47.482ZM165.379 46.9516C165.254 46.8532 165.097 46.8026 164.938 46.8087C164.779 46.8149 164.627 46.8774 164.509 46.9852C164.392 47.093 164.316 47.239 164.296 47.3972C164.276 47.5555 164.313 47.7157 164.4 47.8492C166.227 50.2889 167.884 52.8518 169.357 55.5196C169.357 55.7236 166.379 59.3548 165.175 61.2112C165.093 61.3316 165.06 61.479 165.082 61.6232C165.105 61.7673 165.182 61.8973 165.298 61.9864C165.413 62.071 165.553 62.1165 165.696 62.1165C165.839 62.1165 165.978 62.071 166.093 61.9864C167.236 60.7828 170.479 57.0904 170.928 56.3968C172.152 54.418 168.235 50.0524 165.379 46.9516ZM145.163 48.3592C144.804 48.2426 144.424 48.2039 144.049 48.2459C143.673 48.2879 143.312 48.4095 142.987 48.6026C142.663 48.7958 142.383 49.0559 142.167 49.3658C141.952 49.6756 141.804 50.028 141.736 50.3992C141.571 51.978 141.503 53.5654 141.532 55.1524H139.492C139.29 55.1839 139.106 55.2865 138.973 55.4417C138.84 55.597 138.767 55.7947 138.767 55.999C138.767 56.2034 138.84 56.4011 138.973 56.5563C139.106 56.7116 139.29 56.8142 139.492 56.8456L141.634 57.172C141.62 58.2643 141.695 59.3559 141.858 60.436C142.042 61.5376 143.592 61.3132 143.715 60.2932C143.796 59.3157 143.796 58.3331 143.715 57.3556C144.673 57.3556 145.612 57.3556 145.755 56.4172C145.897 55.4788 144.673 55.336 143.715 55.2544C143.531 51.0112 143.959 50.3788 144.041 50.2768C144.592 49.8484 145.469 50.2768 144.653 51.562C144.558 51.7033 144.521 51.8764 144.552 52.0441C144.582 52.2118 144.677 52.361 144.816 52.4596C145.795 53.194 147.366 49.3996 145.163 48.3592ZM151.834 54.9076C150.951 54.9687 150.065 54.9687 149.182 54.9076C149.009 54.9076 148.843 54.9764 148.72 55.0988C148.598 55.2213 148.529 55.3873 148.529 55.5604C148.529 55.7336 148.598 55.8996 148.72 56.022C148.843 56.1445 149.009 56.2132 149.182 56.2132L151.222 56.4784C152.344 56.6416 151.732 56.1928 152.038 58.906C152.038 59.1928 152.152 59.4678 152.354 59.6706C152.557 59.8733 152.832 59.9872 153.119 59.9872C153.406 59.9872 153.681 59.8733 153.883 59.6706C154.086 59.4678 154.2 59.1928 154.2 58.906C154.188 58.224 154.141 57.5431 154.057 56.866H155.22C155.491 56.866 155.75 56.7586 155.941 56.5673C156.133 56.376 156.24 56.1166 156.24 55.846C156.24 55.5755 156.133 55.3161 155.941 55.1248C155.75 54.9335 155.491 54.826 155.22 54.826C153.527 54.826 153.772 54.9484 153.731 54.622C153.568 53.6836 153.405 52.7248 153.323 51.7864C153.323 51.6133 153.254 51.4473 153.132 51.3248C153.009 51.2024 152.843 51.1336 152.67 51.1336C152.497 51.1336 152.331 51.2024 152.209 51.3248C152.086 51.4473 152.017 51.6133 152.017 51.7864C151.915 53.092 151.834 54.418 151.834 54.9076Z" fill="white"/>
<path d="M162.36 54.4996C162.256 53.6532 162.195 52.8021 162.176 51.9496C162.149 51.7937 162.067 51.6524 161.946 51.5507C161.825 51.4489 161.672 51.3931 161.513 51.3931C161.355 51.3931 161.202 51.4489 161.08 51.5507C160.959 51.6524 160.878 51.7937 160.85 51.9496C160.85 52.8676 160.728 53.7244 160.646 54.6424C159.865 54.6909 159.082 54.6909 158.3 54.6424C158.119 54.6721 157.954 54.7654 157.835 54.9055C157.716 55.0456 157.65 55.2235 157.65 55.4074C157.65 55.5913 157.716 55.7691 157.835 55.9093C157.954 56.0494 158.119 56.1427 158.3 56.1724C159.055 56.1724 159.749 56.2948 160.524 56.356C160.361 58.1512 160.197 59.9668 161.564 59.9668C162.931 59.9668 162.768 58.1308 162.605 56.4376C163.727 56.4376 165.195 56.4376 165.155 55.3768C165.114 54.316 163.543 54.3976 162.36 54.4996ZM120.907 66.4744C118.337 67.1476 116.827 69.6976 116.582 73.2676C116.48 76.2256 117.317 79.9792 114.726 81.7132C114.546 81.8335 114.406 82.004 114.322 82.2036C114.239 82.4031 114.216 82.6228 114.257 82.8352C114.624 84.6304 117.847 82.06 117.194 89.6896C116.948 90.6599 116.953 91.6771 117.21 92.6446C117.467 93.6122 117.968 94.498 118.663 95.218C119.306 95.6736 120.044 95.9766 120.822 96.1039C121.6 96.2311 122.396 96.1793 123.151 95.9524C123.291 95.9164 123.416 95.8348 123.505 95.7203C123.594 95.6058 123.642 95.4649 123.642 95.32C123.642 95.175 123.594 95.0342 123.505 94.9197C123.416 94.8052 123.291 94.7235 123.151 94.6876C121.743 94.4836 120.111 94.6876 119.377 93.484C118.754 91.833 118.662 90.0289 119.112 88.3228C119.316 87.2253 119.25 86.0945 118.92 85.0283C118.589 83.962 118.004 82.9922 117.215 82.2028C120.703 77.9392 116.256 69.4732 121.295 67.7596C121.426 67.6796 121.527 67.5585 121.581 67.4151C121.636 67.2717 121.642 67.1142 121.597 66.9672C121.553 66.8203 121.461 66.6921 121.336 66.603C121.211 66.5138 121.06 66.4686 120.907 66.4744ZM146.509 67.9228C144.979 66.2296 142.837 67.0456 141.205 66.76C141.11 66.7399 141.012 66.7387 140.916 66.7566C140.821 66.7744 140.73 66.8109 140.648 66.8639C140.567 66.917 140.497 66.9855 140.442 67.0657C140.387 67.1459 140.348 67.2361 140.328 67.3312C140.308 67.4263 140.307 67.5244 140.324 67.62C140.342 67.7155 140.379 67.8066 140.432 67.8881C140.485 67.9695 140.553 68.0398 140.634 68.0947C140.714 68.1497 140.804 68.1883 140.899 68.2084C142.613 68.5348 144.53 68.0452 145.244 69.5956C146.591 72.574 143.51 80.2648 146.162 83.5288C143.796 86.4052 146.611 90.9544 144.489 93.0148C143.694 93.7191 142.654 94.0851 141.593 94.0348C141.435 94.0068 141.272 94.0381 141.135 94.1226C140.999 94.2071 140.898 94.3389 140.853 94.4929C140.807 94.6468 140.82 94.8121 140.889 94.9572C140.958 95.1022 141.078 95.2169 141.225 95.2792C141.813 95.4696 142.433 95.5419 143.049 95.4921C143.665 95.4422 144.265 95.2712 144.815 94.9887C145.365 94.7063 145.853 94.318 146.253 93.8463C146.652 93.3745 146.954 92.8285 147.141 92.2396C147.414 91.0446 147.414 89.8034 147.141 88.6084C146.468 83.7328 148.549 85.0588 148.59 83.6104C148.631 82.162 146.693 83.284 147.039 79.0612C147.59 73.5328 148.304 69.9016 146.509 67.9228Z" fill="white"/>
<path d="M125.987 76.083C125.335 76.0409 124.684 76.1783 124.105 76.4805C123.526 76.7826 123.041 77.2379 122.702 77.7966C122.222 78.2442 121.865 78.8075 121.665 79.4326C121.465 80.0576 121.429 80.7235 121.56 81.3666C122.008 82.3695 122.789 83.1871 123.77 83.6813C124.751 84.1756 125.873 84.3164 126.945 84.0798C126.476 86.1198 125.925 87.0582 123.294 86.5278C123.111 86.5164 122.93 86.5701 122.783 86.6796C122.635 86.789 122.532 86.9471 122.49 87.1257C122.449 87.3043 122.472 87.4918 122.555 87.655C122.639 87.8182 122.778 87.9465 122.947 88.017C125.354 88.5882 127.639 88.017 128.373 85.7322C130.658 79.9998 128.373 76.5522 125.987 76.083ZM125.232 82.203C123.906 81.7338 123.579 81.183 123.477 80.775C123.375 80.367 123.661 79.6326 124.232 78.9594C124.803 78.2862 125.171 77.817 125.742 78.0414C127.904 78.9594 127.68 83.121 125.232 82.2642V82.203ZM135.656 81.0606C132.209 80.4486 130.087 84.5286 131.576 86.4462C132.292 87.1416 133.251 87.5306 134.249 87.5306C135.247 87.5306 136.205 87.1416 136.921 86.4462C136.921 86.9562 136.921 87.5274 137.043 87.8334C137.048 87.9746 137.105 88.109 137.203 88.2107C137.301 88.3124 137.433 88.3742 137.574 88.3842C137.716 88.3843 137.854 88.3291 137.956 88.2302C138.059 88.1313 138.119 87.9964 138.125 87.8538C138.125 87.0786 138.492 83.5698 138.41 83.325C138.209 82.7276 137.845 82.1986 137.358 81.7983C136.871 81.3979 136.281 81.1423 135.656 81.0606ZM136.472 83.529C136.472 84.141 135.717 85.1202 135.35 85.3242C134.33 85.875 133.31 85.8342 133.065 85.467C132.821 85.0998 133.616 82.8354 134.861 82.8354C135.33 82.8354 136.37 83.0394 136.472 83.529ZM256.404 51.093C253.446 50.5626 250.671 54.3366 251.834 57.519C252.106 58.4375 252.692 59.2311 253.491 59.7608C254.289 60.2904 255.248 60.5223 256.2 60.4158C261.83 59.8242 260.667 51.8886 256.404 51.093ZM256.2 58.3554C253.609 58.9674 252.691 55.683 254.16 53.7858C254.358 53.4997 254.62 53.2628 254.924 53.093C255.228 52.9233 255.567 52.8254 255.914 52.8066C256.402 52.8945 256.863 53.0952 257.26 53.3927C257.656 53.6903 257.978 54.0763 258.199 54.5202C258.442 55.2939 258.368 56.1324 257.993 56.8515C257.618 57.5707 256.973 58.1116 256.2 58.3554ZM267.991 51.7458C267.807 53.2146 266.624 58.6818 266.604 60.1098C266.632 60.3444 266.737 60.563 266.903 60.7309C267.069 60.8989 267.286 61.0066 267.521 61.0371C267.755 61.0675 267.992 61.019 268.196 60.899C268.399 60.7791 268.557 60.5947 268.644 60.375C268.97 58.947 269.174 53.2962 269.337 51.8886C269.501 50.9706 268.113 50.8686 267.991 51.7458ZM261.789 59.7018C261.664 59.6654 261.533 59.6566 261.404 59.6761C261.275 59.6956 261.152 59.7428 261.043 59.8147C260.935 59.8865 260.843 59.9811 260.775 60.092C260.706 60.2028 260.663 60.3273 260.647 60.4566C260.463 62.1294 258.464 62.6394 259.097 63.5166C259.184 63.6448 259.315 63.7363 259.466 63.774C259.616 63.8116 259.775 63.7926 259.913 63.7206C260.513 63.4485 261.05 63.0538 261.489 62.562C261.928 62.0702 262.26 61.492 262.463 60.8646C262.496 60.7441 262.506 60.618 262.49 60.4937C262.474 60.3695 262.434 60.2497 262.371 60.1413C262.308 60.033 262.225 59.9383 262.125 59.8628C262.025 59.7873 261.911 59.7326 261.789 59.7018ZM247.509 58.2126C247.509 57.7582 247.329 57.3223 247.008 57.0009C246.686 56.6796 246.25 56.499 245.796 56.499C245.341 56.499 244.906 56.6796 244.584 57.0009C244.263 57.3223 244.082 57.7582 244.082 58.2126C244.082 58.6671 244.263 59.103 244.584 59.4243C244.906 59.7457 245.341 59.9262 245.796 59.9262C246.25 59.9262 246.686 59.7457 247.008 59.4243C247.329 59.103 247.509 58.6671 247.509 58.2126ZM198.039 84.4674C198.039 84.9219 198.22 85.3578 198.541 85.6791C198.863 86.0005 199.299 86.181 199.753 86.181C200.208 86.181 200.643 86.0005 200.965 85.6791C201.286 85.3578 201.467 84.9219 201.467 84.4674C201.467 84.013 201.286 83.5771 200.965 83.2557C200.643 82.9344 200.208 82.7538 199.753 82.7538C199.299 82.7538 198.863 82.9344 198.541 83.2557C198.22 83.5771 198.039 84.013 198.039 84.4674ZM95.0399 137.12C95.0661 136.88 95.0416 136.638 94.9679 136.409C94.8943 136.18 94.7732 135.969 94.6125 135.789C94.4517 135.61 94.255 135.467 94.0352 135.368C93.8153 135.27 93.5772 135.22 93.3365 135.22C93.0957 135.22 92.8576 135.27 92.6377 135.368C92.4179 135.467 92.2212 135.61 92.0605 135.789C91.8997 135.969 91.7786 136.18 91.705 136.409C91.6313 136.638 91.6068 136.88 91.6331 137.12C91.6068 137.359 91.6313 137.601 91.705 137.831C91.7786 138.06 91.8997 138.271 92.0605 138.45C92.2212 138.63 92.4179 138.773 92.6377 138.871C92.8576 138.969 93.0957 139.02 93.3365 139.02C93.5772 139.02 93.8153 138.969 94.0352 138.871C94.255 138.773 94.4517 138.63 94.6125 138.45C94.7732 138.271 94.8943 138.06 94.9679 137.831C95.0416 137.601 95.0661 137.359 95.0399 137.12ZM107.076 135.671C107.076 136.126 107.256 136.562 107.578 136.883C107.899 137.205 108.335 137.385 108.789 137.385C109.244 137.385 109.68 137.205 110.001 136.883C110.323 136.562 110.503 136.126 110.503 135.671C110.503 135.217 110.323 134.781 110.001 134.46C109.68 134.138 109.244 133.958 108.789 133.958C108.335 133.958 107.899 134.138 107.578 134.46C107.256 134.781 107.076 135.217 107.076 135.671ZM186.534 131.673C186.109 131.719 185.716 131.921 185.431 132.239C185.145 132.557 184.988 132.969 184.988 133.397C184.988 133.824 185.145 134.237 185.431 134.555C185.716 134.873 186.109 135.074 186.534 135.121C186.959 135.074 187.352 134.873 187.637 134.555C187.922 134.237 188.08 133.824 188.08 133.397C188.08 132.969 187.922 132.557 187.637 132.239C187.352 131.921 186.959 131.719 186.534 131.673ZM206.465 85.4466C206.691 85.4522 206.917 85.4117 207.127 85.3276C207.337 85.2435 207.529 85.1174 207.689 84.9572C207.849 84.7969 207.975 84.6058 208.059 84.3954C208.143 84.1849 208.184 83.9596 208.178 83.733C208.132 83.3082 207.93 82.9154 207.612 82.63C207.294 82.3447 206.882 82.1868 206.454 82.1868C206.027 82.1868 205.615 82.3447 205.297 82.63C204.978 82.9154 204.777 83.3082 204.731 83.733C204.725 83.9614 204.766 84.1885 204.851 84.4003C204.937 84.6121 205.065 84.8043 205.227 84.9648C205.39 85.1254 205.583 85.2509 205.796 85.3338C206.009 85.4167 206.236 85.4551 206.465 85.4466ZM96.5087 39.5058C96.8762 39.4629 97.2152 39.2865 97.4612 39.01C97.7072 38.7336 97.8431 38.3765 97.8431 38.0064C97.8431 37.6364 97.7072 37.2793 97.4612 37.0028C97.2152 36.7264 96.8762 36.55 96.5087 36.507C96.1411 36.55 95.8022 36.7264 95.5562 37.0028C95.3102 37.2793 95.1742 37.6364 95.1742 38.0064C95.1742 38.3765 95.3102 38.7336 95.5562 39.01C95.8022 39.2865 96.1411 39.4629 96.5087 39.5058ZM104.036 39.5058C104.404 39.4629 104.743 39.2865 104.989 39.01C105.235 38.7336 105.371 38.3765 105.371 38.0064C105.371 37.6364 105.235 37.2793 104.989 37.0028C104.743 36.7264 104.404 36.55 104.036 36.507C103.669 36.55 103.33 36.7264 103.084 37.0028C102.838 37.2793 102.702 37.6364 102.702 38.0064C102.702 38.3765 102.838 38.7336 103.084 39.01C103.33 39.2865 103.669 39.4629 104.036 39.5058ZM112.176 39.4854C112.543 39.4425 112.882 39.2661 113.128 38.9896C113.374 38.7132 113.51 38.3561 113.51 37.986C113.51 37.616 113.374 37.2589 113.128 36.9824C112.882 36.706 112.543 36.5296 112.176 36.4866C111.808 36.5296 111.469 36.706 111.223 36.9824C110.977 37.2589 110.841 37.616 110.841 37.986C110.841 38.3561 110.977 38.7132 111.223 38.9896C111.469 39.2661 111.808 39.4425 112.176 39.4854ZM104.689 123.35C104.742 123.242 104.767 123.122 104.759 123.001C104.752 122.881 104.714 122.765 104.648 122.664C104.582 122.563 104.491 122.481 104.384 122.426C104.276 122.371 104.157 122.345 104.036 122.35C103.506 122.35 103.404 122.901 102.996 123.697C100.16 129.327 96.3455 136.957 96.0599 137.977C95.9839 138.193 95.9933 138.429 96.0861 138.639C96.1789 138.848 96.3481 139.014 96.5592 139.102C96.7702 139.191 97.0071 139.195 97.2215 139.115C97.4358 139.035 97.6114 138.876 97.7123 138.67C98.4263 137.548 103.975 124.717 104.689 123.35ZM110.462 121.473C110.402 121.367 110.314 121.279 110.208 121.218C110.103 121.157 109.983 121.124 109.86 121.124C109.738 121.124 109.618 121.157 109.513 121.218C109.407 121.279 109.319 121.367 109.259 121.473C105.893 128.47 100.752 138.446 100.548 139.221C100.518 139.365 100.52 139.514 100.554 139.657C100.588 139.799 100.653 139.933 100.745 140.048C100.836 140.163 100.952 140.256 101.084 140.321C101.215 140.387 101.36 140.422 101.507 140.425C102.302 140.425 102.567 140.159 109.503 124.39C110.483 122.248 110.768 121.942 110.462 121.473ZM172.172 138.568C170.182 135.68 169.047 132.289 168.899 128.785C168.751 125.28 169.596 121.805 171.336 118.76C171.433 118.614 171.469 118.435 171.434 118.263C171.4 118.091 171.298 117.939 171.152 117.842C171.006 117.744 170.827 117.709 170.655 117.744C170.483 117.778 170.332 117.879 170.234 118.025C167.872 121.115 166.676 124.941 166.859 128.826C167.042 132.712 168.591 136.408 171.234 139.262C171.339 139.338 171.466 139.379 171.596 139.378C171.726 139.378 171.852 139.336 171.957 139.259C172.062 139.181 172.139 139.073 172.178 138.949C172.216 138.825 172.214 138.691 172.172 138.568Z" fill="white"/>
<path d="M189.124 116.597C187.696 117.148 190.716 118.841 190.246 128.572C189.838 136.732 186.799 139.323 187.288 140.139C187.341 140.215 187.411 140.276 187.493 140.319C187.575 140.362 187.665 140.384 187.758 140.384C187.85 140.384 187.941 140.362 188.022 140.319C188.104 140.276 188.174 140.215 188.227 140.139C190.403 136.715 191.703 132.808 192.012 128.763C192.322 124.718 191.631 120.659 190.002 116.944C189.93 116.783 189.798 116.656 189.634 116.591C189.47 116.526 189.287 116.529 189.124 116.597ZM172.723 128.184C169.418 130.551 172.213 134.304 175.579 133.366V138.894C175.579 139.731 174.722 140.159 174.212 139.445C174.114 139.313 173.97 139.223 173.808 139.193C173.646 139.162 173.479 139.194 173.34 139.282C173.201 139.369 173.1 139.506 173.057 139.665C173.015 139.824 173.034 139.993 173.11 140.139C173.354 140.539 173.718 140.85 174.151 141.029C174.584 141.208 175.062 141.244 175.516 141.133C175.971 141.021 176.378 140.768 176.679 140.41C176.98 140.051 177.159 139.606 177.19 139.139C177.19 138.486 177.823 129.551 176.986 128.47C176.727 128.169 176.41 127.922 176.054 127.744C175.699 127.566 175.311 127.461 174.914 127.435C174.518 127.408 174.12 127.461 173.743 127.589C173.367 127.718 173.02 127.92 172.723 128.184ZM175.11 129.47C175.331 129.696 175.469 129.99 175.502 130.305C175.536 130.619 175.462 130.936 175.293 131.204C174.844 131.693 173.253 131.53 173.029 130.714C172.804 129.898 174.375 128.96 175.11 129.47ZM181.311 127.838C180.609 127.978 179.972 128.343 179.497 128.879C179.022 129.414 178.735 130.09 178.68 130.804C178.625 131.518 178.804 132.23 179.19 132.832C179.577 133.435 180.15 133.894 180.822 134.141C181.377 134.349 181.985 134.372 182.555 134.207C183.125 134.041 183.626 133.696 183.984 133.223C184.057 133.095 184.085 132.946 184.066 132.8C184.046 132.654 183.979 132.519 183.875 132.414C183.77 132.31 183.635 132.243 183.488 132.223C183.342 132.203 183.194 132.232 183.066 132.305C182.515 132.632 180.577 132.632 180.434 131.04C180.401 130.725 180.465 130.407 180.618 130.129C180.772 129.851 181.007 129.627 181.291 129.487C181.576 129.347 181.897 129.297 182.21 129.345C182.524 129.393 182.815 129.536 183.045 129.755C183.189 129.89 183.38 129.963 183.577 129.957C183.774 129.952 183.961 129.868 184.096 129.725C184.231 129.581 184.304 129.39 184.298 129.193C184.292 128.996 184.209 128.809 184.065 128.674C183.707 128.324 183.27 128.065 182.79 127.919C182.311 127.774 181.804 127.746 181.311 127.838ZM84.1256 40.0156C84.3274 40.0814 84.5449 40.0813 84.7466 40.0153C84.9484 39.9493 85.1238 39.8208 85.2476 39.6484C85.7168 39.016 87.0632 33.2224 87.4712 31.8352C87.5253 31.6593 87.5074 31.4692 87.4213 31.3066C87.3352 31.144 87.1881 31.0223 87.0122 30.9682C86.8364 30.9141 86.6463 30.932 86.4837 31.0181C86.3211 31.1042 86.1993 31.2513 86.1452 31.4272C84.1868 37.1596 82.5752 39.526 84.1256 40.0156ZM144.224 227.981C142.551 229.875 140.766 231.666 138.879 233.346C138.775 233.449 138.692 233.571 138.636 233.706C138.579 233.841 138.55 233.986 138.55 234.132C138.55 234.278 138.579 234.423 138.636 234.558C138.692 234.692 138.775 234.815 138.879 234.917C140.45 236.325 142.102 237.61 143.612 238.997C143.723 239.083 143.859 239.13 144 239.13C144.14 239.13 144.276 239.083 144.387 238.997C144.475 238.891 144.523 238.758 144.523 238.62C144.523 238.482 144.475 238.348 144.387 238.242C143.306 236.835 142.225 235.448 141.082 234.162C142.656 232.528 144.102 230.775 145.407 228.92C146.04 228.124 144.795 227.247 144.224 227.981ZM213.36 235.509C213.604 235.509 213.36 235.509 215.991 233.775C220.867 230.348 221.356 230.123 221.214 229.144C221.03 227.716 219.174 227.492 214.176 225.064C213.986 224.958 213.763 224.933 213.554 224.992C213.346 225.051 213.169 225.191 213.064 225.38C212.958 225.57 212.932 225.793 212.992 226.002C213.051 226.21 213.191 226.386 213.38 226.492C214.318 227.022 217.276 228.879 218.419 229.572C215.461 232.347 212.952 234.652 212.952 234.652C212.898 234.731 212.866 234.823 212.859 234.919C212.852 235.015 212.87 235.11 212.911 235.197C212.952 235.283 213.015 235.358 213.094 235.412C213.173 235.467 213.264 235.5 213.36 235.509ZM198.631 232.02C201.364 232.02 203.955 231.572 206.587 231.449C206.776 231.449 206.958 231.374 207.092 231.24C207.226 231.106 207.301 230.925 207.301 230.735C207.301 230.546 207.226 230.364 207.092 230.23C206.958 230.096 206.776 230.021 206.587 230.021C203.914 230.021 201.364 229.593 198.631 229.776C198.333 229.776 198.048 229.895 197.837 230.105C197.627 230.315 197.509 230.601 197.509 230.898C197.509 231.196 197.627 231.481 197.837 231.692C198.048 231.902 198.333 232.02 198.631 232.02ZM183.474 232.592C184.779 232.592 190.41 232 191.022 231.959C191.206 231.959 191.382 231.886 191.512 231.756C191.642 231.626 191.715 231.45 191.715 231.266C191.715 231.082 191.642 230.905 191.512 230.775C191.382 230.645 191.206 230.572 191.022 230.572C190.41 230.572 184.779 230.205 183.474 230.368C183.205 230.404 182.958 230.537 182.78 230.742C182.601 230.946 182.503 231.208 182.503 231.48C182.503 231.751 182.601 232.013 182.78 232.218C182.958 232.422 183.205 232.555 183.474 232.592ZM164.991 231.286C164.849 231.289 164.709 231.319 164.579 231.376C164.449 231.433 164.331 231.515 164.233 231.617C164.134 231.719 164.057 231.84 164.005 231.972C163.953 232.104 163.928 232.246 163.93 232.388C163.93 233.591 165.175 233.53 165.97 233.53C168.313 233.423 170.648 233.198 172.968 232.857C173.149 232.827 173.314 232.734 173.433 232.594C173.552 232.454 173.618 232.276 173.618 232.092C173.618 231.908 173.552 231.73 173.433 231.59C173.314 231.45 173.149 231.357 172.968 231.327C171.601 231.429 166.297 231.245 164.991 231.286ZM156.77 232.408C155.26 232.408 149.508 232.143 148.039 232.408C147.768 232.408 147.509 232.515 147.318 232.707C147.126 232.898 147.019 233.157 147.019 233.428C147.019 233.698 147.126 233.958 147.318 234.149C147.509 234.341 147.768 234.448 148.039 234.448C149.569 234.652 155.281 234.081 156.77 234.02C156.984 234.02 157.189 233.935 157.34 233.784C157.491 233.632 157.576 233.427 157.576 233.214C157.576 233 157.491 232.795 157.34 232.644C157.189 232.493 156.984 232.408 156.77 232.408ZM77.8628 9.21159C77.3898 8.62167 76.7748 8.16147 76.0754 7.87408C75.376 7.58669 74.6151 7.48152 73.8639 7.56842C73.1128 7.65532 72.396 7.93145 71.7807 8.37095C71.1654 8.81044 70.6717 9.39891 70.3459 10.0813C70.02 10.7636 69.8727 11.5175 69.9177 12.2723C69.9627 13.0271 70.1985 13.7581 70.6031 14.3969C71.0077 15.0357 71.5678 15.5614 72.231 15.9246C72.8942 16.2879 73.6387 16.4769 74.3948 16.474C75.2422 16.4872 76.0756 16.2569 76.796 15.8104C77.5163 15.364 78.0934 14.7201 78.4586 13.9553C78.8238 13.1905 78.9618 12.337 78.8562 11.4961C78.7506 10.6552 78.4058 9.86231 77.8628 9.21159ZM76.7408 13.2916C76.4837 13.7712 76.0832 14.1586 75.5951 14.3995C75.1071 14.6403 74.556 14.7227 74.0189 14.635C73.4818 14.5474 72.9855 14.2941 72.5993 13.9106C72.2132 13.5271 71.9565 13.0325 71.8652 12.496C71.7673 12.1112 71.757 11.7092 71.8352 11.3199C71.9134 10.9306 72.078 10.5638 72.3169 10.2466C72.5557 9.92935 72.8628 9.66984 73.2154 9.48717C73.568 9.30451 73.9571 9.20336 74.354 9.19119C74.8167 9.23022 75.2629 9.38149 75.654 9.63187C76.045 9.88225 76.3691 10.2242 76.5982 10.6281C76.8272 11.032 76.9544 11.4856 76.9686 11.9498C76.9828 12.4139 76.8836 12.8744 76.6796 13.2916H76.7408ZM97.0796 9.72159C96.4917 8.95302 95.668 8.39829 94.7348 8.1423C93.8016 7.88631 92.8102 7.94315 91.9124 8.30414C91.0145 8.66512 90.2597 9.31036 89.7634 10.1411C89.2672 10.9718 89.0568 11.9423 89.1644 12.904C89.2555 13.8675 89.6515 14.7769 90.2948 15.4999C90.9382 16.2229 91.7953 16.7219 92.7417 16.9244C93.6881 17.1269 94.6744 17.0222 95.5573 16.6257C96.4401 16.2292 97.1735 15.5615 97.6508 14.7196C98.0081 13.9108 98.1435 13.0215 98.0431 12.1431C97.9427 11.2647 97.6101 10.4289 97.0796 9.72159ZM92.1836 10.15C92.6933 9.81477 93.3056 9.67175 93.911 9.74649C94.5165 9.82124 95.0756 10.1089 95.4884 10.558C95.8686 11.0057 96.1128 11.5528 96.1923 12.1347C96.2718 12.7166 96.1833 13.3091 95.9372 13.8424C95.6767 14.3005 95.2847 14.6699 94.8119 14.9027C94.339 15.1355 93.8072 15.2209 93.2852 15.148C92.7441 15.0563 92.2423 14.8063 91.8433 14.4294C91.4444 14.0525 91.1661 13.5658 91.0439 13.0307C90.9216 12.4957 90.9607 11.9364 91.1563 11.4236C91.3519 10.9109 91.6953 10.4676 92.1428 10.15H92.1836ZM116.235 10.252C115.763 9.66274 115.149 9.20289 114.45 8.91543C113.752 8.62796 112.992 8.52226 112.241 8.6082C111.491 8.69415 110.775 8.96892 110.159 9.40686C109.544 9.8448 109.05 10.4316 108.723 11.1124C108.396 11.7932 108.247 12.5458 108.289 13.2999C108.332 14.054 108.565 14.7849 108.967 15.4244C109.369 16.0638 109.927 16.5909 110.588 16.9564C111.249 17.3219 111.992 17.5139 112.747 17.5144C113.596 17.5316 114.432 17.3042 115.156 16.8593C115.879 16.4144 116.459 15.7708 116.827 15.0052C117.195 14.2396 117.334 13.3845 117.229 12.5417C117.125 11.6989 116.779 10.904 116.235 10.252ZM115.093 14.332C114.851 14.7203 114.513 15.04 114.112 15.2604C113.711 15.4808 113.26 15.5945 112.802 15.5906C112.345 15.5867 111.896 15.4654 111.498 15.2382C111.101 15.011 110.769 14.6857 110.533 14.2932C110.298 13.9008 110.167 13.4545 110.154 12.9971C110.14 12.5396 110.244 12.0864 110.456 11.6808C110.668 11.2752 110.981 10.9308 111.364 10.6806C111.747 10.4304 112.188 10.2828 112.645 10.252C113.117 10.2685 113.578 10.403 113.986 10.6431C114.393 10.8833 114.734 11.2215 114.977 11.6269C115.221 12.0324 115.359 12.4923 115.379 12.9648C115.399 13.4372 115.301 13.9072 115.093 14.332Z" fill="white"/>
<path d="M290.207 44.2384C290.789 43.0501 291.057 41.7326 290.985 40.4113C290.914 39.0901 290.506 37.8092 289.799 36.6904C288.147 34.2424 284.821 34.324 282.149 34.3852C273.887 34.5892 79.9443 28.6528 79.7403 28.6324C78.5575 28.347 77.3104 28.5221 76.2519 29.122C73.0083 31.4884 73.1103 39.9136 76.7619 42.0352C77.8415 42.5219 79.0391 42.6849 80.2095 42.5044L283.883 47.9512C285.171 47.947 286.436 47.6012 287.546 46.9489C288.657 46.2966 289.576 45.3614 290.207 44.2384ZM91.2663 31.2232C90.156 33.8117 89.2356 36.4776 88.5123 39.1996C88.5068 39.3209 88.5259 39.442 88.5685 39.5557C88.6111 39.6693 88.6764 39.7732 88.7603 39.8609C88.8442 39.9486 88.945 40.0184 89.0567 40.066C89.1683 40.1137 89.2885 40.1382 89.4099 40.138C90.3279 40.138 90.4911 39.3016 91.8783 34.2832C92.6331 31.468 92.8371 31.3864 92.4699 30.9988C121.703 31.9168 283.781 36.4252 284.107 36.4456C286.617 36.4456 287.984 37.2208 288.534 38.6692C288.95 39.6462 289.065 40.7249 288.865 41.7676C288.666 42.8103 288.16 43.7699 287.412 44.524C286.511 45.156 285.494 45.6038 284.419 45.8419C283.344 46.0799 282.233 46.1035 281.149 45.9112C269.256 45.5032 78.3123 40.6276 78.1083 40.5868C75.4359 39.934 75.2115 33.6304 76.8435 31.162C77.4351 30.2848 78.3327 30.3256 79.7403 30.5092C93.0003 31.162 91.4499 30.6928 91.2663 31.2232ZM158.423 152.501C158.423 150.461 160.137 151.359 84.9831 153.378C84.5518 153.348 84.1194 153.421 83.7219 153.591C83.3245 153.761 82.9735 154.024 82.6983 154.358C81.9231 155.52 83.2695 218.026 83.3103 218.618C83.3208 218.876 83.4308 219.12 83.6171 219.298C83.8034 219.477 84.0517 219.577 84.3099 219.576C84.3099 219.576 92.3271 219.291 99.3447 219.087C160.932 217.312 160.137 216.435 160.075 215.598C159.912 214.028 158.443 153.582 158.423 152.501ZM84.3915 155.765C84.3915 155.622 84.7791 155.5 84.9831 155.48C87.6963 155.48 153.976 153.44 156.383 153.44C156.567 159.56 158.28 211.62 158.423 214.782C147.937 215.456 92.9595 217.394 85.3299 217.557C84.1263 200.89 84.2691 156.989 84.3915 155.765Z" fill="white"/>
<path d="M87.8797 212.273C89.4709 211.11 119.357 185.978 120.357 185.162C128.251 191.465 150.447 209.193 155.179 213.028C155.914 213.62 156.852 212.559 156.138 211.947C147.693 204.929 126.232 187.467 121.887 183.876C123.927 182.285 149.569 160.824 152.833 158.193C153.527 157.601 152.629 156.581 151.915 157.132C143.49 163.905 123.6 179.96 120.295 182.632C113.971 177.634 93.5509 161.906 88.6345 158.356C88.4981 158.277 88.3375 158.25 88.1826 158.279C88.0276 158.309 87.8887 158.394 87.7917 158.519C87.6946 158.643 87.6459 158.799 87.6546 158.956C87.6633 159.114 87.7288 159.263 87.8389 159.376C94.8361 165.088 118.235 183.489 118.765 183.856C112.074 189.425 89.0221 208.826 86.8597 211.008C86.692 211.144 86.5849 211.34 86.5619 211.554C86.539 211.769 86.6021 211.983 86.7373 212.151C86.8726 212.319 87.069 212.426 87.2832 212.449C87.4974 212.472 87.712 212.409 87.8797 212.273ZM234.066 205.113C227.314 199.564 213.279 187.365 210.606 185.039C216.583 179.776 235.086 162.599 238.799 159.213C238.937 159.083 239.018 158.904 239.023 158.714C239.029 158.525 238.959 158.341 238.83 158.203C238.7 158.065 238.52 157.984 238.331 157.979C238.142 157.973 237.958 158.043 237.82 158.172C235.066 160.722 209.953 182.999 209.137 183.734C205.833 180.857 179.823 157.866 178.803 157.01C178.675 156.911 178.515 156.863 178.354 156.875C178.193 156.887 178.042 156.958 177.931 157.074C177.819 157.191 177.755 157.345 177.75 157.506C177.745 157.668 177.8 157.825 177.905 157.948C179.598 159.682 203.038 181.245 207.505 185.182C205.119 187.222 181.475 208.132 178.945 210.376C178.851 210.451 178.784 210.554 178.753 210.67C178.723 210.786 178.732 210.909 178.778 211.02C178.824 211.131 178.905 211.224 179.009 211.285C179.113 211.345 179.234 211.37 179.353 211.355C180.312 211.355 207.036 188.099 208.913 186.467C213.381 190.241 229.089 203.032 233.046 206.194C233.862 206.765 234.801 205.725 234.066 205.113ZM32.9017 304.808C32.9017 304.808 88.4509 301.625 89.4505 301.544C89.6098 301.532 89.7641 301.483 89.9011 301.401C90.0381 301.319 90.1539 301.206 90.2393 301.071C90.3246 300.937 90.377 300.783 90.3924 300.625C90.4078 300.466 90.3856 300.305 90.3277 300.156C90.4297 286.692 91.8373 261.396 90.9805 260.091C90.7029 259.751 90.3376 259.493 89.9241 259.346C89.5106 259.198 89.0647 259.167 88.6345 259.254L33.2077 261.988C32.9478 261.998 32.7017 262.108 32.5197 262.294C32.3377 262.479 32.2335 262.728 32.2285 262.988C31.8817 271.005 31.1677 303.216 31.3513 303.788C31.4459 304.115 31.654 304.397 31.9383 304.584C32.2225 304.771 32.5642 304.85 32.9017 304.808ZM89.2669 261.723C89.2669 263.396 89.1649 270.556 88.4917 299.544C82.8817 299.769 34.5541 302.645 33.4117 302.706C33.4117 298.402 34.1053 268.802 34.2889 263.946L88.7569 261.213C88.8906 261.218 89.0174 261.273 89.112 261.368C89.2065 261.462 89.2619 261.589 89.2669 261.723ZM108.117 299.177C108.382 300.136 109.3 300.177 110.259 300.095C169.663 295.485 166.603 297.096 167.011 296.342C167.175 296.015 166.869 297.688 167.583 276.35C167.583 273.718 168.378 256.419 167.725 255.419C167.451 255.076 167.086 254.815 166.671 254.667C166.257 254.52 165.809 254.49 165.379 254.583C165.094 254.583 112.788 257.153 109.973 257.316C109.709 257.322 109.458 257.429 109.272 257.615C109.086 257.801 108.979 258.053 108.973 258.316C108.647 265.844 107.913 298.484 108.117 299.177ZM110.157 298.035C110.157 293.608 110.871 263.947 111.034 259.275L165.787 256.541C166.257 256.541 166.257 253.542 165.298 294.832C159.627 295.077 111.36 297.953 110.095 298.035H110.157ZM178.966 294.2C179.251 295.138 180.149 295.179 181.128 295.097C240.533 290.466 237.473 292.098 237.881 291.344C238.044 291.038 237.738 292.588 238.452 271.372C238.452 268.679 239.248 251.462 238.595 250.421C238.32 250.078 237.955 249.817 237.541 249.669C237.126 249.522 236.679 249.492 236.249 249.585L180.843 252.318C180.579 252.324 180.328 252.431 180.141 252.617C179.955 252.803 179.848 253.055 179.843 253.318C179.496 261.233 178.782 293.445 178.966 294.2ZM181.842 254.318L236.596 251.584C237.065 251.584 237.045 248.626 236.106 289.875C230.496 290.079 182.148 292.955 181.026 293.037C180.965 292.751 181.659 259.234 181.842 254.236V254.318Z" fill="white"/>
<path d="M86.3496 262.702C80.2296 267.455 64.2564 278.818 61.992 280.47C60.1356 279.348 39.2256 266.823 36.9612 265.415C36.8151 265.321 36.6374 265.288 36.4672 265.324C36.2969 265.36 36.1481 265.463 36.0534 265.609C35.9587 265.755 35.9259 265.933 35.9623 266.103C35.9986 266.273 36.1011 266.422 36.2472 266.517C39.2868 268.557 56.3208 279.369 60.1764 281.776C58.9524 282.653 38.0016 297.729 36.7572 298.749C36.65 298.834 36.5724 298.952 36.5355 299.084C36.4986 299.216 36.5043 299.356 36.5517 299.485C36.5991 299.614 36.6859 299.724 36.7997 299.801C36.9135 299.877 37.0485 299.916 37.1856 299.912C37.8792 299.912 61.6656 283.408 62.2164 283C67.0104 285.795 84.2076 295.362 86.1048 296.362C86.2266 296.44 86.3728 296.47 86.5156 296.448C86.6584 296.425 86.7881 296.351 86.88 296.24C86.9401 296.1 86.9527 295.945 86.9158 295.797C86.8789 295.65 86.7947 295.519 86.676 295.424C79.0872 290.936 71.4168 286.284 63.9912 281.776C68.418 278.492 87.1656 263.865 87.1656 263.865C87.3198 263.757 87.4247 263.592 87.4572 263.406C87.4897 263.221 87.4472 263.03 87.339 262.875C87.2308 262.721 87.0658 262.616 86.8802 262.584C86.6947 262.551 86.5038 262.594 86.3496 262.702ZM164.135 257.48C162.544 258.602 138.043 275.615 136.187 276.941C131.76 273.902 117.358 263.865 114.114 261.356C113.42 260.825 112.584 261.906 113.257 262.437C118.745 266.762 131.311 276.084 134.351 278.267C129.802 281.654 114.502 292.221 111.584 295.118C111.512 295.188 111.461 295.278 111.44 295.377C111.418 295.475 111.427 295.578 111.464 295.672C111.501 295.766 111.565 295.847 111.649 295.905C111.732 295.962 111.83 295.993 111.931 295.995C112.217 295.995 113.706 295.158 136.064 279.45C141.062 282.755 157.219 292.384 160.85 294.322C160.962 294.369 161.088 294.375 161.203 294.338C161.319 294.301 161.418 294.224 161.482 294.12C161.546 294.017 161.571 293.894 161.552 293.774C161.534 293.654 161.473 293.544 161.381 293.465C158.362 291.425 139.41 279.185 137.921 278.124C141.593 275.534 163.38 259.54 164.849 258.479C164.981 258.385 165.071 258.241 165.098 258.08C165.124 257.92 165.086 257.755 164.992 257.622C164.897 257.49 164.753 257.4 164.593 257.374C164.432 257.347 164.267 257.385 164.135 257.48ZM209.953 271.066C215.012 274.452 230.353 285.162 233.658 287.692C233.726 287.75 233.805 287.793 233.89 287.82C233.976 287.847 234.065 287.857 234.154 287.85C234.243 287.842 234.33 287.817 234.409 287.776C234.489 287.735 234.559 287.679 234.617 287.61C234.674 287.542 234.718 287.463 234.745 287.378C234.772 287.293 234.782 287.203 234.775 287.114C234.767 287.025 234.742 286.938 234.701 286.859C234.66 286.78 234.603 286.709 234.535 286.652C231.904 284.612 215.686 272.494 211.871 269.801C213.911 268.475 232.699 255.521 234.943 254.032C235.021 253.984 235.088 253.921 235.142 253.846C235.195 253.772 235.233 253.688 235.254 253.599C235.275 253.51 235.278 253.418 235.263 253.328C235.248 253.237 235.216 253.151 235.168 253.073C235.119 252.996 235.056 252.928 234.982 252.875C234.908 252.821 234.824 252.783 234.735 252.762C234.646 252.742 234.553 252.739 234.463 252.753C234.373 252.768 234.286 252.801 234.209 252.849C232.373 254.052 210.953 267.618 209.729 268.414C205.506 265.762 191.369 257.48 187.574 255.725C187.428 255.655 187.26 255.646 187.107 255.699C186.954 255.753 186.829 255.865 186.758 256.011C186.31 256.868 186.412 256.256 207.811 269.679C201.834 273.759 183.331 286.876 181.454 288.345C181.352 288.451 181.285 288.587 181.263 288.733C181.241 288.88 181.265 289.029 181.332 289.161C181.419 289.289 181.552 289.38 181.704 289.414C181.855 289.448 182.014 289.423 182.148 289.344C184.351 288.08 209.953 271.066 209.953 271.066Z" fill="white"/>
<path d="M388.8 330.206C386.556 329.696 374.52 328.064 311.545 318.782C310.215 316.912 309.183 314.848 308.485 312.662C308.22 306.542 306.649 287.121 306.139 283.327C305.119 275.779 303.059 268.231 303.222 260.458C305.405 259.989 307.567 259.479 309.648 258.908C309.826 258.851 309.981 258.74 310.091 258.59C310.201 258.439 310.26 258.258 310.26 258.071C310.287 250.444 309.728 242.826 308.587 235.285C312.014 231.49 311.892 224.35 311.77 218.536C311.77 213.232 311.953 209.519 311.933 173.656C318.196 168.74 316.768 157.826 316.013 152.277C317.828 151.012 317.91 151.012 317.93 150.706C317.774 148.717 317.362 146.756 316.706 144.872C316.274 143.883 315.642 142.994 314.85 142.261C315.544 141.241 315.666 141.159 315.523 140.833C314.36 138.446 313.483 136.753 312.341 134.937V117.046C316.003 117.449 319.692 116.577 322.786 114.578C322.898 114.518 322.983 114.419 323.026 114.3C323.069 114.181 323.066 114.05 323.018 113.933C322.97 113.815 322.879 113.72 322.765 113.666C322.65 113.612 322.519 113.602 322.398 113.639C319.624 114.313 317.624 113.986 316.441 112.64C313.524 109.376 315.89 100.767 317.053 97.7069C319.787 90.0773 323.173 89.8121 323.989 84.3245C324.453 80.3698 323.575 76.374 321.496 72.978C319.417 69.5821 316.257 66.9829 312.524 65.5973C312.524 65.4341 313.075 34.4873 313.096 33.5285C313.3 24.7361 313.565 12.7002 303.732 8.72215C301.514 7.97971 299.171 7.68164 296.837 7.84495C296.408 7.84495 80.862 0.949749 79.3524 0.847749C75.2799 0.37972 71.1629 0.462059 67.1124 1.09255C56.9124 3.29575 56.7696 13.3325 56.7084 19.8605C56.7084 20.4113 56.8308 77.3681 56.9124 131.571C50.0376 131.408 22.6404 131.367 16.908 131.571C12.0732 131.571 7.8504 131.918 5.1576 133.978C3.84282 135.018 2.77615 136.337 2.03511 137.84C1.29408 139.343 0.89729 140.993 0.873596 142.669C0.873596 162.64 2.9136 282.47 1.812 322.372C1.6692 327.554 3.9948 331.634 7.932 332.837C5.5044 336.122 7.932 339.855 11.4 341.405C38.2668 347.199 116.215 363.845 122.376 363.845C125.538 363.845 284.27 348.403 379.192 339.243C384.659 339.243 390.065 336.448 389.392 331.389C389.147 330.165 389.147 330.287 388.8 330.206ZM303.916 281.96C305.18 291.976 305.588 302.156 306.343 312.233C304.241 313.035 301.917 313.035 299.815 312.233C293.695 300.626 284.005 284.877 285.535 271.189C286.004 266.782 286.188 264.844 283.679 261.172C285.862 261.029 288.085 260.825 290.411 260.458C290.839 260.458 291.002 260.458 292.451 252.502C295.368 261.478 295.368 262.09 296.082 261.927L301.345 260.805C301.08 267.965 302.936 274.963 303.916 281.96ZM243.96 330.675C246.857 333.817 254.854 329.247 258.464 326.901C258.544 326.854 258.608 326.784 258.648 326.7C258.687 326.617 258.702 326.523 258.689 326.432C258.625 326.007 258.65 325.574 258.763 325.16C258.875 324.745 259.072 324.359 259.342 324.025C259.395 323.945 259.464 323.876 259.545 323.824C259.626 323.771 259.716 323.735 259.811 323.719C260.137 323.719 260.77 324.31 261.076 325.432C261.382 326.554 264.319 325.881 265.156 325.432C265.502 325.228 265.523 325.269 265.156 319.312C274.458 321.046 292.798 324.208 299.428 325.432C299.632 326.309 299.836 327.166 300.06 327.982C277.62 330.022 120.907 344.017 116.97 344.302C114.665 343.772 67.4388 335.347 65.7864 335.061C108.749 331.532 220.969 322.352 250.712 319.802C246.755 325.759 243.389 326.534 243.246 327.227C243.07 327.816 243.044 328.439 243.168 329.041C243.293 329.643 243.565 330.204 243.96 330.675ZM240.492 246.239C228.864 246.627 78.0876 251.972 69.03 249.728C61.7268 248.81 58.2996 242.506 58.83 231.001C58.9524 224.881 58.4424 46.0949 58.3404 22.3901C91.5108 23.8997 289.656 29.4281 311.117 29.6117C311.117 33.3857 310.77 52.0518 310.546 64.9242C303.732 63.1698 295.307 64.6997 296.531 71.3909C296.552 71.5016 296.61 71.602 296.694 71.6765C297.465 72.2791 298.109 73.0293 298.586 73.8834C299.064 74.7375 299.367 75.6782 299.477 76.6507C299.588 77.6231 299.503 78.6078 299.228 79.5471C298.953 80.4864 298.494 81.3615 297.877 82.1214C297.388 82.6926 298.754 85.1813 298.102 93.9125C297.224 105.643 303.242 114.313 310.117 116.455C310.117 119.107 310.015 128.98 310.015 131.306C302.855 120.147 299.081 118.209 287.167 110.477C286.555 110.069 286.535 111.151 288.738 102.766C290.148 102.314 291.439 101.551 292.516 100.534C293.592 99.5177 294.428 98.2728 294.96 96.8909C295.41 92.1416 295.41 87.3603 294.96 82.6109C295.504 80.7945 295.631 78.8787 295.33 77.0065C295.03 75.1343 294.311 73.3541 293.226 71.7989C291.363 68.6513 288.559 66.1681 285.209 64.6997C278.701 61.9661 272.663 64.6998 267.318 67.0458C261.198 69.9222 261.565 71.6561 262.32 78.3065C262.329 78.8369 262.46 79.358 262.705 79.8288C262.949 80.2996 263.299 80.7073 263.728 81.0197C262.3 85.8137 260.239 94.6469 261.79 99.3797C262.384 101.078 263.313 102.639 264.522 103.97C265.731 105.302 267.195 106.377 268.828 107.132C268.685 107.744 268.379 108.886 268.154 109.743C267.155 109.478 265.319 109.029 264.238 108.784C257.363 105.581 251.12 101.93 244.062 102.664C243.516 102.741 242.998 102.952 242.552 103.276C241.519 102.283 240.308 101.494 238.982 100.951C237.881 98.9106 219.562 69.5346 219.337 69.1878C218.419 67.7394 217.644 66.4746 218.317 65.0058C218.99 63.537 220.786 60.9258 220.582 58.7634L237.31 58.6614C237.851 58.6614 238.37 58.4464 238.752 58.0639C239.135 57.6813 239.35 57.1624 239.35 56.6214V50.9909C239.35 50.4499 239.135 49.931 238.752 49.5485C238.37 49.1659 237.851 48.9509 237.31 48.9509H176.64C176.099 48.9509 175.58 49.1659 175.198 49.5485C174.815 49.931 174.6 50.4499 174.6 50.9909V57.5597C174.6 58.1008 174.815 58.6197 175.198 59.0022C175.58 59.3848 176.099 59.5997 176.64 59.5997L199.672 59.3753C201.914 63.2534 205.258 66.3776 209.28 68.3514C210.137 68.8002 210.055 68.8614 211.708 77.613C214.4 91.7094 217.175 106.295 225.988 117.944C225.824 118.352 225.702 118.76 225.559 119.168C225.517 119.304 225.508 119.448 225.532 119.588C225.557 119.728 225.614 119.86 225.7 119.974C225.786 120.087 225.897 120.179 226.025 120.241C226.153 120.303 226.294 120.334 226.436 120.331C227.111 120.311 227.782 120.436 228.404 120.696C229.027 120.957 229.587 121.347 230.047 121.84C229.7 125.818 230.476 127.96 235.188 131.489C236.371 132.367 244.348 136.712 246.449 137.813C245.51 141.526 244.715 145.321 243.96 149.135C222.56 149.849 175.742 150.278 174.6 151.175C174.259 151.444 173.986 151.789 173.802 152.182C173.618 152.575 173.528 153.006 173.539 153.44C173.213 161.6 172.519 208.193 172.58 210.335C172.58 214.415 173.254 216.904 177.599 216.455C180.761 216.455 219.847 215.456 235.882 215.048C235.637 217.741 235.555 217.781 235.882 218.006C237.716 219.399 239.79 220.443 242.002 221.086C240.55 229.387 240.037 237.824 240.472 246.239H240.492ZM276.6 122.432C271.724 123.003 263.993 122.228 262.606 117.74C262.075 115.7 264.013 112.048 265.054 110.783L268.603 111.62C268.819 111.67 269.046 111.634 269.237 111.52C269.427 111.405 269.565 111.222 269.623 111.008C269.888 109.865 270.215 108.641 270.439 107.744C271.235 108.009 272.092 108.335 272.275 107.581C272.297 107.5 272.302 107.416 272.291 107.334C272.28 107.251 272.253 107.172 272.212 107.1C272.17 107.028 272.114 106.965 272.048 106.914C271.982 106.864 271.907 106.827 271.826 106.805C265.706 105.112 262.381 99.0941 263.666 92.0969C264.307 87.4843 265.22 82.9136 266.4 78.4086C268.176 80.4007 270.554 81.7579 273.172 82.2735C275.791 82.7891 278.506 82.4348 280.904 81.2645C280.396 84.9998 280.69 88.8004 281.766 92.4131C282.843 96.0258 284.677 99.3675 287.147 102.215C284.76 110.375 284.678 110.375 285.29 111.273C285.902 112.171 287.963 113.027 290.309 114.823C286.803 118.925 281.936 121.626 276.6 122.432ZM276.6 126.104C275.539 126.104 276.6 124.166 277.477 124.166C278.354 124.166 277.294 126.043 276.6 126.104ZM270.337 125.594C270.337 126.655 268.297 127.45 267.563 126.92C266.828 126.389 267.95 125.145 269.052 124.88C269.314 124.81 269.593 124.846 269.83 124.98C270.066 125.113 270.241 125.333 270.317 125.594H270.337ZM263.483 123.737C263.399 123.811 263.299 123.863 263.192 123.889C263.084 123.916 262.971 123.916 262.863 123.89C262.755 123.864 262.655 123.813 262.571 123.74C262.487 123.667 262.422 123.575 262.381 123.472C262.157 122.391 263.768 121.799 264.095 122.228C264.421 122.656 264.176 123.146 263.462 123.737H263.483ZM293.736 154.949C293.868 155.004 293.98 155.098 294.057 155.218C294.133 155.339 294.171 155.48 294.164 155.623C294.127 155.76 294.048 155.883 293.939 155.974C293.829 156.065 293.694 156.121 293.552 156.133C287.432 155.582 282.842 151.604 281.578 144.035C281.545 143.865 281.582 143.689 281.679 143.545C281.777 143.402 281.927 143.303 282.098 143.27C282.268 143.238 282.445 143.274 282.588 143.372C282.732 143.47 282.83 143.62 282.863 143.791C283.524 146.444 284.876 148.875 286.783 150.835C288.689 152.795 291.082 154.215 293.716 154.949H293.736ZM213.768 59.253C213.89 59.763 212.442 59.9466 211.177 63.435C211.145 63.5954 211.172 63.7621 211.254 63.9039C211.336 64.0457 211.466 64.1529 211.621 64.2054C211.776 64.2579 211.945 64.2521 212.096 64.1892C212.247 64.1262 212.37 64.0104 212.442 63.8634C213.523 60.9258 216.053 61.4765 215.563 59.0897C214.604 54.459 215.747 52.0722 217.338 52.5414C217.644 52.5414 217.481 56.6213 218.48 57.6617C220.255 59.7017 217.032 62.7617 216.44 65.0261C216.277 65.7644 216.284 66.5303 216.461 67.2655C216.637 68.0007 216.979 68.686 217.46 69.2694C217.848 69.861 236.147 99.4205 237.371 101.338C233.059 105.579 229.445 110.474 226.661 115.843C216.787 101.909 214.849 84.3858 211.524 68.3922C211.112 67.5266 210.381 66.8541 209.484 66.5153C206.318 64.873 203.653 62.4062 201.773 59.3753L213.768 59.253ZM237.493 103.745C238.411 102.725 238.513 102.521 238.86 102.603C239.695 103.024 240.476 103.544 241.186 104.153C238.778 106.051 232.189 113.701 230.455 119.555C229.586 118.965 228.583 118.6 227.538 118.495C229.415 112.823 233.536 108.213 237.493 103.745ZM236.065 213.253C219.541 213.538 177.966 214.701 175.355 214.313C174.6 213.64 174.641 212.151 174.661 210.947C174.661 210.723 175.232 156.643 175.538 153.175C175.538 152.481 170.479 152.787 243.511 150.992C239.88 170.678 238.085 192.057 236.065 213.253ZM243.572 221.576C245.784 221.982 248.052 221.982 250.264 221.576C250.371 221.56 250.471 221.509 250.548 221.432C250.625 221.355 250.676 221.255 250.692 221.147C254.894 198.299 250.978 196.667 254.772 155.194C256.812 131.959 259.872 124.288 259.26 123.533C255.955 119.453 257.995 115.027 262.198 112.028C260.158 115.7 260.729 118.678 262.361 120.535C261.851 120.724 261.416 121.072 261.12 121.528C260.824 121.984 260.683 122.523 260.717 123.066C260.751 123.608 260.959 124.125 261.311 124.54C261.662 124.955 262.137 125.246 262.667 125.369C263.405 125.417 264.134 125.182 264.706 124.713C265.278 124.243 265.65 123.573 265.747 122.84C266.379 123.097 267.026 123.315 267.685 123.493C264.931 125.125 265.013 128.715 268.236 128.715C269.149 128.775 270.051 128.486 270.759 127.906C271.467 127.327 271.929 126.501 272.051 125.594C272.051 123.411 269.766 124.288 274.846 124.166C272.908 128.103 278.232 129.041 279.313 125.227C279.502 124.699 279.502 124.122 279.313 123.595C288.738 121.555 283.577 117.862 279.313 133.917C275.947 146.443 277.273 161.375 279.048 171.8C276.7 173.648 274.515 175.695 272.52 177.92C270.194 173.044 269.195 170.841 268.685 169.882C268.175 168.923 268.154 169.148 267.869 169.229C266.788 169.597 263.891 170.739 261.116 171.902C262.279 159.437 262.952 151.787 265.196 133.529C265.21 133.371 265.163 133.213 265.065 133.087C264.967 132.961 264.826 132.877 264.669 132.852C264.511 132.826 264.35 132.86 264.217 132.948C264.085 133.036 263.99 133.171 263.952 133.325C262.177 144.219 260.076 158.315 259.199 172.738C257.159 173.595 256.098 174.023 255.568 174.329C255.037 174.635 255.078 174.778 255.18 175.043C255.629 176.125 256.934 179.123 258.546 182.816C256.506 198.544 251.528 246.301 251.039 253.216C247.844 251.519 244.887 249.406 242.246 246.933C241.726 238.458 242.171 229.951 243.572 221.576ZM276.784 187.263C277.926 186.284 279.721 184.57 280.864 183.448C283.781 209.009 285.8 196.647 283.495 239.609C283.026 248.3 282.618 255.929 282.883 259.295C278.117 259.613 273.331 259.429 268.603 258.745C268.848 253.543 271.133 207.275 271.541 202.4C274.625 201.179 277.612 199.727 280.476 198.055C280.884 197.687 280.782 198.136 276.784 187.263ZM298.367 313.743V316.864C283.189 314.62 270.5 312.784 264.748 311.846C264.646 310.622 264.564 309.622 264.503 309.01C268.42 296.015 274.213 278.757 268.909 266.17C268.195 264.457 267.624 265.987 270.154 260.927C273.993 261.358 277.86 261.494 281.72 261.335C285.331 266.293 283.862 267.047 283.536 271.535C282.394 286.611 290.982 300.197 298.367 313.743ZM298.489 318.986C298.612 320.495 298.836 322.066 299.101 323.617L265.094 317.639C265.094 316.334 264.952 315.028 264.87 313.804C271.663 314.947 284.066 316.844 298.489 318.986ZM266.604 258.418C261.82 257.61 257.172 256.14 252.793 254.053C252.997 252.176 258.75 196.565 259.892 186.019C265.502 198.769 267.032 202.339 267.583 203.236C267.848 203.665 267.889 203.563 268.032 203.563C268.582 203.463 269.121 203.313 269.644 203.114C268.318 217.965 266.706 253.012 266.604 258.418ZM268.216 260.601C266.033 264.436 265.829 264.681 266.849 266.435C268.889 269.965 269.011 276.493 268.889 280.552C268.542 288.039 263.014 306.521 262.463 308.337C261.612 309.089 260.561 309.576 259.438 309.739C258.314 309.902 257.168 309.734 256.139 309.255C255.71 309.092 255.853 309.561 255.608 306.317C254.813 295.546 252.732 267.68 251.528 255.644C256.814 258.114 262.438 259.785 268.216 260.601ZM296.429 226.553C297.367 234.591 300.407 255.399 300.937 258.949L296.694 260.009C296.021 257.969 293.858 250.34 293.022 248.565C292.931 248.399 292.793 248.265 292.624 248.179C292.456 248.093 292.266 248.061 292.078 248.085C291.891 248.109 291.715 248.189 291.574 248.315C291.433 248.441 291.333 248.606 291.288 248.789C290.676 252.094 290.084 255.419 289.493 258.724C287.759 258.887 286.188 259.01 284.74 259.112C284.74 248.789 285.107 238.243 285.719 227.777C289.126 227.512 294.654 226.88 296.429 226.553ZM288.697 197.483C288.686 197.351 288.726 197.22 288.81 197.117C288.894 197.014 289.014 196.948 289.146 196.933C303.426 195.219 302.855 195.076 303.059 195.647C303.511 197.153 303.664 198.734 303.508 200.299C303.508 200.849 304.099 200.523 289.717 202.339C289.003 202.522 289.126 201.829 288.697 197.483ZM302.814 258.479C300.284 245.158 299.652 239.997 297.979 226.288C300.264 226.088 302.533 225.741 304.772 225.248C307.207 235.736 308.446 246.467 308.465 257.235C306.506 257.623 304.548 258.071 302.814 258.479ZM309.954 198.075C309.75 225.921 310.464 227.92 308.118 232.612C307.649 229.879 307.118 227.125 306.506 224.452C307.149 223.997 307.726 223.455 308.22 222.841C308.812 222.127 306.629 196.321 303.1 177.655C304.813 177.002 308.22 175.615 310.056 174.676C310.076 182.449 310.015 190.384 309.954 198.075ZM313.891 167.149C313.436 169.107 312.274 170.829 310.627 171.983C301.916 177.614 281.17 180.388 280.966 180.409C280.869 180.427 280.778 180.471 280.703 180.536C280.628 180.6 280.571 180.683 280.537 180.776C279.126 182.754 277.475 184.55 275.621 186.121C274.537 187.375 273.124 188.301 271.541 188.793C270.296 188.977 267.277 187.467 270.623 187.161C271.512 187.189 272.386 186.934 273.12 186.431C273.854 185.929 274.408 185.205 274.703 184.366C274.75 184.235 274.749 184.091 274.7 183.961C274.652 183.83 274.559 183.721 274.438 183.652C273.254 183.101 274.234 185.896 268.583 185.692C267.216 185.692 265.462 183.938 267.706 184.101C271.337 184.387 273.826 181.898 272.928 181.225C272.833 181.147 272.714 181.104 272.591 181.104C272.469 181.104 272.35 181.147 272.255 181.225C270.684 182.897 268.338 182.489 265.972 182.204C264.809 182.061 263.932 180.817 265.462 180.572C267.502 180.245 272.5 180.266 273.071 179.695C279.191 172.901 288.004 168.393 295.184 164.782C301.813 161.524 308.165 157.73 314.177 153.44C314.909 157.989 314.812 162.634 313.891 167.149ZM313.422 144.015C314.549 145.708 315.159 147.693 315.176 149.727C309.804 153.742 304.198 157.435 298.387 160.784C298.224 159.621 297.938 157.479 297.898 156.704C305.629 152.318 311.096 147.809 313.422 144.015ZM68.1936 2.62255C135.248 4.17295 295.184 9.49735 295.184 9.49735C298.102 9.49735 299.57 9.64015 300.284 9.59935H300.468C306.16 10.3949 309.403 15.7193 310.464 20.0033C310.987 22.58 311.206 25.2092 311.117 27.8369C275.764 27.2453 155.628 24.5117 58.32 20.3297C58.32 11.3129 59.1768 3.82615 68.1936 2.62255ZM58.32 243.2C53.1384 243.2 36.8388 243.2 31.6572 243.445C31.6572 237.08 31.29 193.097 31.2288 186.712C35.0844 186.855 52.7916 186.406 56.8512 186.304C56.892 237.671 56.28 237.753 58.32 243.2ZM56.8104 167.72C51.1596 167.72 33.9828 167.72 30.0864 167.903C30.2088 165.578 30.2904 159.743 30.3516 156.949C34.146 156.949 50.9964 156.479 56.8716 156.153C56.79 159.927 56.79 163.803 56.79 167.577L56.8104 167.72ZM56.8104 154.317C53.9952 154.317 30.7188 155.031 29.5356 155.133C28.3524 155.235 28.5768 156.337 28.5156 158.377C28.2912 165.129 28.23 167.863 28.3524 168.985C28.4544 169.739 28.6176 169.76 28.9032 169.78C31.5552 169.964 54.138 169.597 56.8308 169.556V184.468C28.74 184.795 29.5152 184.754 29.5152 185.876C29.5152 186.406 29.5152 240.16 29.7396 244.832C29.7396 245.791 32.1468 245.546 59.2584 245.321C62.502 251.441 67.704 251.931 74.6196 252.421C81.5352 252.91 233.903 248.463 240.941 248.218C243.438 250.993 246.443 253.265 249.794 254.909C250.794 266.395 252.242 287.549 253.14 301.054C240.308 301.911 26.7 317.721 19.1112 318.272C19.1112 313.192 18.1932 144.994 18.1932 144.994C21.5388 144.994 52.8732 144.484 56.7696 144.362V154.174L56.8104 154.317ZM9.36 331.185C7.014 328.757 8.0136 336.142 8.0136 141.465C8.0136 135.345 12.0936 133.754 16.8468 133.489C22.9668 133.142 34.1868 133.754 56.7696 133.101V142.342C52.0776 142.342 17.2344 142.913 17.2344 142.913C17.0997 142.918 16.9673 142.949 16.8447 143.005C16.7222 143.061 16.6119 143.141 16.5204 143.24C16.1124 143.689 17.1732 319.414 17.2548 319.618C17.2946 319.709 17.3602 319.787 17.4436 319.841C17.527 319.896 17.6245 319.924 17.724 319.924C17.724 319.924 232.597 304.379 253.262 302.686C253.262 303.992 253.834 311.356 253.915 312.356C226.334 314.6 11.4 330.92 9.36 331.185ZM121.234 354.665L14.2764 332.47C53.4036 329.92 222.764 316.946 253.446 314.294C253.093 315.442 252.635 316.555 252.079 317.619C232.679 319.108 58.728 333.715 58.728 333.715C57.4428 333.837 57.5448 335.755 58.728 335.755L116.786 346.322C116.95 346.322 121.172 345.975 300.754 330.002C300.754 330.267 300.876 330.451 301.08 330.593C302.875 331.715 305.731 330.593 305.731 329.757C305.683 328.677 305.807 327.596 306.098 326.554C306.098 326.554 306.69 326.819 307.771 330.022C307.792 330.092 307.828 330.156 307.878 330.209C307.928 330.262 307.989 330.303 308.057 330.328C311.812 331.669 315.675 332.686 319.603 333.368C320.344 333.38 321.076 333.211 321.737 332.877C322.398 332.543 322.968 332.053 323.398 331.45C323.647 330.871 323.721 330.231 323.608 329.61C323.496 328.99 323.202 328.416 322.765 327.962C319.095 326.498 315.838 324.159 313.279 321.148C340.799 325.228 370.807 329.308 382.129 330.961L121.234 354.665Z" fill="white"/>
</svg>
